<?xml version="1.0" encoding="UTF-8"?><svg id="Layer_1" xmlns="http://www.w3.org/2000/svg" viewBox="0 0 250.66 250.66"><rect width="250.66" height="250.66" rx="12" ry="12" fill="#1b1cf4"/><path d="M148.6,156.71l-63.72-57.17c.19-3.83.83-7.34,2.44-10.75l12.82-27.14,84.44,75.75-25.87,15.83c-3.1,1.78-6.16,2.76-10.1,3.46v.02Z" fill="#fff"/><path d="M70.52,191.71c-6.43-.14-11.22-4.73-11.87-10.94-.47-4.47.91-9.44,4.34-12.73l33.9-32.48-2.84-2.52c-2.28-1.84-2.86-4.99-1.1-7.54-5.56-6.28-9.42-14.14-9.64-22.97l62.1,55.7c-8.7.69-16.88-2.13-23.83-7.08-2.33,1.84-5.31,1.85-7.5-.11l-2.46-2.2-28,36.54c-3.09,4.03-7.9,6.45-13.1,6.33ZM73.58,183.34c1.27-1.94-.97-5.56-4.46-6.41-.91-.22-2.04.2-2.53.92-.35.51-.41,1.58-.09,2.32,1.61,3.78,5.86,5.03,7.08,3.17Z" fill="#fff"/><path d="M191.61,131.8l-4.82,2.98L101.99,58.7l2.37-5.12c.27-.59,1.43-.9,2.05-.34l85.33,76.56c.58.52.4,1.68-.12,2h-.01Z" fill="#fff"/></svg>